<svg width="141" height="38" viewBox="0 0 141 38" fill="none" xmlns="http://www.w3.org/2000/svg">
<mask id="path-1-inside-1_51_301" fill="white">
<rect width="25" height="25" rx="1"/>
</mask>
<rect width="25" height="25" rx="1" stroke="white" stroke-width="4" mask="url(#path-1-inside-1_51_301)"/>
<mask id="path-2-inside-2_51_301" fill="white">
<rect x="13" y="13" width="25" height="25" rx="1"/>
</mask>
<rect x="13" y="13" width="25" height="25" rx="1" stroke="white" stroke-width="4" mask="url(#path-2-inside-2_51_301)"/>
<path d="M56.756 26.198C55.1867 26.198 53.8447 25.8753 52.73 25.23C51.6153 24.5847 50.7573 23.668 50.156 22.48C49.5693 21.2773 49.276 19.862 49.276 18.234C49.276 17.0167 49.4447 15.924 49.782 14.956C50.1193 13.9733 50.6033 13.1373 51.234 12.448C51.8793 11.744 52.664 11.2087 53.588 10.842C54.5267 10.4753 55.5827 10.292 56.756 10.292C57.6213 10.292 58.45 10.4093 59.242 10.644C60.0487 10.8787 60.7453 11.216 61.332 11.656C61.5813 11.8173 61.7427 12.0153 61.816 12.25C61.904 12.47 61.9187 12.6827 61.86 12.888C61.816 13.0933 61.7207 13.2693 61.574 13.416C61.4273 13.548 61.2367 13.6213 61.002 13.636C60.782 13.6507 60.54 13.57 60.276 13.394C59.792 13.0273 59.2567 12.756 58.67 12.58C58.0833 12.404 57.4673 12.316 56.822 12.316C55.7073 12.316 54.7687 12.5507 54.006 13.02C53.2433 13.4747 52.664 14.142 52.268 15.022C51.872 15.902 51.674 16.9727 51.674 18.234C51.674 19.4953 51.872 20.5733 52.268 21.468C52.664 22.348 53.2433 23.0227 54.006 23.492C54.7687 23.9467 55.7073 24.174 56.822 24.174C57.4673 24.174 58.0833 24.086 58.67 23.91C59.2713 23.7193 59.836 23.4407 60.364 23.074C60.628 22.9127 60.8627 22.8393 61.068 22.854C61.288 22.8687 61.4713 22.942 61.618 23.074C61.7647 23.206 61.86 23.3747 61.904 23.58C61.9627 23.7707 61.9553 23.976 61.882 24.196C61.8233 24.4013 61.684 24.5773 61.464 24.724C60.8627 25.208 60.1513 25.5747 59.33 25.824C58.5087 26.0733 57.6507 26.198 56.756 26.198ZM64.4897 21.028C64.2257 21.028 64.0057 20.94 63.8297 20.764C63.6537 20.588 63.5657 20.3753 63.5657 20.126C63.5657 19.862 63.6537 19.6493 63.8297 19.488C64.0057 19.312 64.2257 19.224 64.4897 19.224H69.3297C69.579 19.224 69.7917 19.312 69.9677 19.488C70.1437 19.6493 70.2317 19.862 70.2317 20.126C70.2317 20.3753 70.1437 20.588 69.9677 20.764C69.7917 20.94 69.579 21.028 69.3297 21.028H64.4897ZM74.5153 26.154C74.178 26.154 73.914 26.0587 73.7233 25.868C73.5473 25.6773 73.4593 25.4133 73.4593 25.076V11.414C73.4593 11.062 73.5547 10.798 73.7453 10.622C73.936 10.4313 74.1927 10.336 74.5153 10.336C74.8233 10.336 75.058 10.3947 75.2193 10.512C75.3953 10.6147 75.5567 10.8053 75.7033 11.084L81.4673 21.842H80.7853L86.5273 11.084C86.674 10.8053 86.828 10.6147 86.9893 10.512C87.1507 10.3947 87.3853 10.336 87.6933 10.336C88.016 10.336 88.2653 10.4313 88.4413 10.622C88.6173 10.798 88.7053 11.062 88.7053 11.414V25.076C88.7053 25.4133 88.6173 25.6773 88.4413 25.868C88.28 26.0587 88.0307 26.154 87.6933 26.154C87.356 26.154 87.0993 26.0587 86.9233 25.868C86.7473 25.6773 86.6593 25.4133 86.6593 25.076V13.724H87.1433L82.0393 23.162C81.922 23.382 81.7973 23.5433 81.6653 23.646C81.5333 23.7487 81.35 23.8 81.1153 23.8C80.8807 23.8 80.69 23.7487 80.5433 23.646C80.3967 23.5287 80.2647 23.3673 80.1473 23.162L74.9993 13.702H75.5273V25.076C75.5273 25.4133 75.4393 25.6773 75.2633 25.868C75.102 26.0587 74.8527 26.154 74.5153 26.154ZM96.7865 26.198C95.7012 26.198 94.7625 25.9707 93.9705 25.516C93.1932 25.0613 92.5845 24.416 92.1445 23.58C91.7045 22.744 91.4845 21.7613 91.4845 20.632C91.4845 19.7667 91.6092 18.9967 91.8585 18.322C92.1079 17.6473 92.4599 17.068 92.9145 16.584C93.3839 16.0853 93.9412 15.7113 94.5865 15.462C95.2465 15.198 95.9799 15.066 96.7865 15.066C97.8572 15.066 98.7812 15.2933 99.5585 15.748C100.351 16.2027 100.967 16.848 101.407 17.684C101.847 18.5053 102.067 19.488 102.067 20.632C102.067 21.4827 101.942 22.2527 101.693 22.942C101.443 23.6313 101.084 24.218 100.615 24.702C100.16 25.186 99.6025 25.56 98.9425 25.824C98.2972 26.0733 97.5785 26.198 96.7865 26.198ZM96.7865 24.482C97.3879 24.482 97.9159 24.3353 98.3705 24.042C98.8252 23.7487 99.1772 23.316 99.4265 22.744C99.6905 22.172 99.8225 21.468 99.8225 20.632C99.8225 19.3707 99.5439 18.4173 98.9865 17.772C98.4292 17.1267 97.6959 16.804 96.7865 16.804C96.1705 16.804 95.6352 16.9507 95.1805 17.244C94.7259 17.5227 94.3665 17.948 94.1025 18.52C93.8532 19.092 93.7285 19.796 93.7285 20.632C93.7285 21.8787 94.0072 22.832 94.5645 23.492C95.1219 24.152 95.8625 24.482 96.7865 24.482ZM105.662 26.154C105.31 26.154 105.039 26.0587 104.848 25.868C104.657 25.6627 104.562 25.384 104.562 25.032V16.232C104.562 15.8653 104.657 15.5867 104.848 15.396C105.039 15.2053 105.303 15.11 105.64 15.11C105.992 15.11 106.256 15.2053 106.432 15.396C106.623 15.5867 106.718 15.8653 106.718 16.232V17.948L106.476 17.552C106.799 16.7307 107.305 16.1147 107.994 15.704C108.683 15.2787 109.475 15.066 110.37 15.066C111.221 15.066 111.925 15.2273 112.482 15.55C113.054 15.858 113.479 16.3347 113.758 16.98C114.037 17.6107 114.176 18.41 114.176 19.378V25.032C114.176 25.384 114.081 25.6627 113.89 25.868C113.699 26.0587 113.428 26.154 113.076 26.154C112.709 26.154 112.431 26.0587 112.24 25.868C112.049 25.6627 111.954 25.384 111.954 25.032V19.51C111.954 18.586 111.771 17.9113 111.404 17.486C111.052 17.0607 110.495 16.848 109.732 16.848C108.837 16.848 108.119 17.1267 107.576 17.684C107.048 18.2413 106.784 18.9893 106.784 19.928V25.032C106.784 25.78 106.41 26.154 105.662 26.154ZM122.276 26.198C121.102 26.198 120.09 25.978 119.24 25.538C118.404 25.0833 117.751 24.4453 117.282 23.624C116.827 22.788 116.6 21.798 116.6 20.654C116.6 19.5393 116.827 18.564 117.282 17.728C117.736 16.892 118.36 16.2393 119.152 15.77C119.944 15.3007 120.846 15.066 121.858 15.066C122.606 15.066 123.273 15.1907 123.86 15.44C124.446 15.6747 124.945 16.0267 125.356 16.496C125.781 16.9507 126.096 17.508 126.302 18.168C126.522 18.828 126.632 19.5687 126.632 20.39C126.632 20.6393 126.558 20.83 126.412 20.962C126.265 21.0793 126.045 21.138 125.752 21.138H118.36V19.774H125.136L124.762 20.082C124.762 19.3487 124.652 18.7253 124.432 18.212C124.226 17.6987 123.911 17.31 123.486 17.046C123.075 16.7673 122.562 16.628 121.946 16.628C121.256 16.628 120.67 16.7893 120.186 17.112C119.716 17.4347 119.357 17.882 119.108 18.454C118.858 19.026 118.734 19.6933 118.734 20.456V20.588C118.734 21.8787 119.034 22.854 119.636 23.514C120.252 24.1593 121.139 24.482 122.298 24.482C122.738 24.482 123.2 24.4233 123.684 24.306C124.182 24.1887 124.652 23.9907 125.092 23.712C125.341 23.5653 125.561 23.4993 125.752 23.514C125.957 23.5287 126.118 23.5947 126.236 23.712C126.368 23.8293 126.448 23.976 126.478 24.152C126.507 24.328 126.478 24.5113 126.39 24.702C126.302 24.878 126.148 25.0393 125.928 25.186C125.429 25.5233 124.85 25.78 124.19 25.956C123.53 26.1173 122.892 26.198 122.276 26.198ZM131.434 30.114C131.17 30.114 130.95 30.0407 130.774 29.894C130.612 29.762 130.517 29.5787 130.488 29.344C130.473 29.124 130.517 28.882 130.62 28.618L132.116 25.252V26.198L128.002 16.628C127.899 16.364 127.862 16.1147 127.892 15.88C127.921 15.6453 128.031 15.462 128.222 15.33C128.412 15.1833 128.669 15.11 128.992 15.11C129.27 15.11 129.49 15.176 129.652 15.308C129.813 15.44 129.96 15.6673 130.092 15.99L133.414 24.196H132.798L136.164 15.99C136.296 15.6527 136.45 15.4253 136.626 15.308C136.802 15.176 137.044 15.11 137.352 15.11C137.616 15.11 137.821 15.1833 137.968 15.33C138.129 15.462 138.224 15.6453 138.254 15.88C138.298 16.1 138.261 16.342 138.144 16.606L132.644 29.256C132.497 29.5933 132.328 29.8207 132.138 29.938C131.962 30.0553 131.727 30.114 131.434 30.114Z" fill="white"/>
</svg>
